<?xml version="1.0" standalone="no"?>
<!DOCTYPE svg PUBLIC "-//W3C//DTD SVG 20010904//EN"
 "http://www.w3.org/TR/2001/REC-SVG-20010904/DTD/svg10.dtd">
<svg version="1.0" xmlns="http://www.w3.org/2000/svg"
 width="768.000000pt" height="768.000000pt" viewBox="0 0 768.000000 768.000000"
 preserveAspectRatio="xMidYMid meet">
<metadata>
Created by potrace 1.14, written by Peter Selinger 2001-2017
</metadata>
<g transform="translate(0.000000,768.000000) scale(0.100000,-0.100000)"
fill="#000000" stroke="none">
<path d="M0 4445 c0 -2053 0 -2085 19 -2085 11 0 27 -7 35 -15 12 -12 20 -13
35 -5 11 5 29 10 41 10 12 0 18 5 15 10 -8 13 -2 13 27 -3 26 -13 27 -37 2
-37 -16 0 -19 -26 -4 -35 20 -12 10 -26 -11 -14 -17 8 -20 8 -14 -1 5 -9 1
-10 -16 -5 -20 7 -22 6 -12 -7 7 -8 10 -24 6 -36 -4 -16 -1 -22 10 -22 21 0
32 -19 19 -32 -15 -15 22 -48 47 -41 13 3 21 1 21 -8 0 -16 106 -120 114 -112
3 4 6 1 6 -5 0 -7 -9 -12 -20 -12 -26 0 -26 -12 0 -28 27 -17 25 -35 -7 -49
-22 -11 -28 -10 -39 5 -18 23 -17 49 1 56 21 8 18 18 -12 40 -19 14 -40 18
-87 17 -106 -4 -111 -5 -114 -25 -3 -12 0 -16 8 -11 13 8 89 -69 90 -90 0 -5
9 -20 20 -33 l19 -24 25 27 c20 21 31 26 51 21 14 -4 23 -11 20 -16 -11 -18
12 -10 30 10 22 24 35 26 35 5 0 -8 -5 -15 -11 -15 -7 0 -8 -4 -2 -12 5 -7 8
-23 7 -35 -1 -21 0 -21 20 -8 29 21 46 19 46 -5 0 -16 6 -19 32 -16 19 2 33 9
34 17 3 34 18 59 35 59 11 0 19 4 19 10 0 6 10 5 25 -2 14 -6 25 -17 25 -24 0
-7 6 -14 12 -17 10 -4 10 -7 1 -17 -10 -11 -15 -11 -28 0 -10 8 -15 9 -15 2 0
-13 32 -32 54 -32 10 0 15 8 13 22 -2 20 2 23 27 21 28 -2 97 -66 133 -125 17
-28 44 -41 79 -38 14 1 38 -14 62 -38 23 -22 61 -50 86 -63 25 -12 46 -27 46
-31 0 -16 28 -39 35 -28 10 15 28 12 22 -4 -8 -21 15 -65 37 -72 13 -4 25 0
37 15 20 24 49 28 49 7 0 -8 5 -16 12 -18 6 -2 11 -20 11 -39 0 -18 5 -40 11
-48 9 -12 8 -13 -7 -8 -11 4 -20 1 -23 -8 -4 -8 -12 -15 -19 -15 -14 0 -27
-31 -29 -67 -1 -12 -4 -24 -7 -27 -3 -4 -1 -24 5 -46 l10 -40 3238 0 3238 0 0
2690 0 2690 -3840 0 -3840 0 0 -2085z m3619 1352 c24 -20 48 -34 54 -30 6 3 7
2 4 -3 -3 -6 22 -37 55 -69 33 -33 80 -86 105 -117 25 -32 50 -55 55 -52 4 3
7 0 6 -7 -3 -12 1 -14 33 -18 7 -1 9 -11 5 -28 -5 -20 -4 -24 3 -13 13 18 20
11 23 -24 2 -23 4 -25 14 -12 9 13 11 10 12 -15 0 -19 10 -39 26 -54 14 -13
26 -21 26 -17 0 4 7 -1 14 -11 19 -25 17 -25 55 2 27 19 35 21 42 10 6 -10 9
-10 9 -1 0 6 5 12 10 12 6 0 10 -11 10 -25 0 -14 5 -25 11 -25 6 0 9 -6 6 -14
-3 -8 -3 -17 0 -20 4 -3 8 -23 10 -43 2 -21 11 -46 20 -55 9 -10 13 -18 8 -18
-4 0 -2 -7 5 -15 6 -8 9 -19 6 -24 -4 -5 -2 -12 3 -15 4 -3 11 -18 14 -34 6
-27 48 -58 61 -45 12 12 6 33 -9 33 -8 0 -15 9 -15 20 0 11 7 20 15 20 8 0 15
8 15 18 1 14 5 12 25 -10 13 -16 30 -28 37 -28 10 0 10 -2 0 -9 -8 -4 -13 -11
-13 -15 1 -3 -6 -20 -14 -37 -13 -24 -14 -33 -4 -45 9 -11 9 -21 1 -39 -7 -14
-8 -25 -3 -25 4 0 7 -10 7 -22 -1 -16 4 -23 17 -22 9 1 17 -2 17 -8 0 -5 6 -5
16 0 21 11 65 -10 76 -35 12 -31 9 -85 -4 -77 -7 5 -8 3 -2 -7 9 -15 9 -16 19
-64 7 -35 4 -32 35 -37 16 -2 25 2 25 11 0 8 8 19 17 25 27 17 47 -19 47 -85
-1 -48 -4 -58 -22 -68 -21 -11 -20 -11 5 -6 23 4 29 1 34 -20 4 -15 1 -32 -6
-40 -9 -11 -9 -15 -1 -15 7 0 10 -4 7 -9 -3 -5 -15 -7 -26 -4 -24 6 -60 -22
-60 -47 0 -19 26 -34 41 -24 5 3 9 0 9 -6 0 -18 24 -37 40 -33 8 2 6 -1 -5 -8
-38 -24 -45 -42 -24 -60 19 -16 19 -17 -8 -50 -16 -18 -23 -30 -17 -26 18 11
33 -15 23 -40 -10 -29 -23 -29 -50 -2 -15 15 -30 20 -50 17 -16 -3 -29 -1 -29
3 0 10 -57 22 -70 14 -13 -8 11 -34 26 -28 7 2 11 -4 11 -14 -2 -13 5 -18 22
-18 31 -1 48 -40 23 -51 -9 -4 -22 -6 -28 -5 -7 1 -14 -8 -17 -20 -3 -12 -10
-18 -16 -14 -6 3 -11 3 -11 0 0 -3 14 -11 30 -16 17 -6 30 -18 30 -27 0 -12
-3 -13 -12 -4 -8 8 -19 6 -42 -10 l-31 -22 18 21 c19 22 15 45 -6 42 -33 -4
-39 2 -33 29 3 15 3 21 0 15 -11 -25 -26 -13 -21 16 4 20 2 31 -7 34 -16 6
-36 -11 -36 -30 0 -8 -9 -11 -27 -8 -34 6 -76 -21 -54 -34 9 -6 12 -18 7 -37
-6 -23 -5 -26 7 -15 11 8 17 9 22 1 3 -5 -1 -13 -10 -16 -12 -5 -13 -9 -5 -14
8 -5 -1 -12 -24 -20 -21 -7 -39 -10 -41 -8 -3 2 4 49 15 104 65 339 36 711
-79 1021 -103 275 -241 486 -465 708 -72 72 -122 123 -111 114 11 -8 40 -32
64 -52z m2466 -137 c-3 -5 -1 -10 4 -10 6 0 11 5 11 10 0 6 5 10 11 10 6 0 9
-7 5 -15 -3 -8 -1 -15 4 -15 6 0 10 -5 10 -11 0 -5 -4 -7 -10 -4 -5 3 -8 0 -5
-7 9 -23 11 -109 3 -114 -4 -3 -8 -10 -8 -16 0 -6 10 -3 23 8 12 10 17 12 10
5 -17 -20 -4 -69 27 -102 16 -15 31 -25 34 -22 3 4 6 -3 6 -15 0 -28 -7 -28
-36 3 -23 25 -44 33 -44 16 0 -5 7 -16 15 -25 8 -8 15 -19 15 -25 0 -15 -17
-14 -22 1 -3 7 -7 2 -10 -10 -4 -12 -3 -20 2 -17 4 3 15 -7 24 -21 10 -13 28
-30 42 -36 15 -7 23 -17 19 -26 -3 -9 0 -12 8 -9 8 3 22 -4 31 -14 9 -11 21
-17 26 -14 6 3 10 1 10 -6 0 -8 -15 -10 -50 -7 -97 10 -168 88 -172 189 -2 49
-22 79 -41 60 -8 -8 -8 -11 2 -11 7 0 10 -4 6 -10 -3 -5 -12 -7 -20 -3 -10 3
-15 -1 -15 -14 0 -16 -8 -20 -50 -22 -45 -2 -51 0 -62 24 -10 22 -9 28 3 36
12 8 12 10 -1 18 -14 10 -33 -5 -25 -20 4 -5 -37 -29 -50 -29 -3 0 -5 11 -5
24 0 28 -27 59 -45 53 -19 -8 -14 27 7 41 10 7 18 22 18 34 0 15 4 18 17 14
10 -4 14 -4 10 0 -4 4 -1 14 6 22 10 13 9 14 -3 7 -8 -4 -6 1 5 12 11 11 24
18 29 15 4 -2 2 -9 -5 -14 -10 -6 -6 -7 11 -2 14 4 27 11 28 15 2 5 8 6 13 3
6 -3 20 -7 32 -9 12 -1 30 -6 39 -10 12 -5 27 2 47 22 25 24 59 51 69 52 2 1
0 -3 -3 -9z m-75 -35 c0 -1 -9 -5 -19 -8 -13 -3 -18 -1 -14 9 4 10 33 10 33
-1z m183 -27 c-13 -12 -25 -19 -29 -16 -9 9 18 37 36 38 10 0 8 -6 -7 -22z
m480 -42 c7 -17 -22 -31 -36 -17 -5 5 -6 14 -3 20 10 16 33 14 39 -3z m-65
-37 c-2 -6 -8 -10 -13 -10 -5 0 -11 4 -13 10 -2 6 4 11 13 11 9 0 15 -5 13
-11z m132 -5 c0 -11 -6 -14 -20 -9 -15 5 -18 3 -14 -9 4 -10 1 -16 -8 -16 -8
0 -29 -11 -48 -25 -40 -30 -50 -31 -50 -7 1 35 59 83 61 50 0 -7 4 -3 9 10 11
27 70 33 70 6z m-2765 -4 c3 -5 1 -10 -4 -10 -6 0 -11 5 -11 10 0 6 2 10 4 10
3 0 8 -4 11 -10z m85 -100 c0 -5 -4 -10 -10 -10 -5 0 -10 5 -10 10 0 6 5 10
10 10 6 0 10 -4 10 -10z m1680 -11 c0 -5 -7 -9 -15 -9 -15 0 -20 12 -9 23 8 8
24 -1 24 -14z m35 -29 c3 -5 -1 -10 -9 -10 -9 0 -16 5 -16 10 0 6 4 10 9 10 6
0 13 -4 16 -10z m-4985 -20 c0 -5 -4 -10 -10 -10 -5 0 -10 5 -10 10 0 6 5 10
10 10 6 0 10 -4 10 -10z m5010 -10 c0 -5 -4 -10 -10 -10 -5 0 -10 5 -10 10 0
6 5 10 10 10 6 0 10 -4 10 -10z m186 -13 c2 -12 -5 -17 -22 -17 -13 0 -24 2
-24 4 0 2 -3 11 -6 20 -4 11 1 14 22 13 17 -2 28 -9 30 -20z m-79 -2 c8 -9 12
-19 9 -22 -4 -4 -16 3 -28 15 -14 13 -17 22 -10 22 8 0 20 -7 29 -15z m-127
-19 c0 -3 -4 -8 -10 -11 -5 -3 -10 -1 -10 4 0 6 5 11 10 11 6 0 10 -2 10 -4z
m725 -6 c-3 -5 -1 -11 5 -15 5 -3 10 -18 10 -33 -1 -26 -1 -26 -16 -7 -8 11
-12 25 -10 32 3 8 -3 13 -15 13 -26 0 -17 15 10 17 12 1 19 -2 16 -7z m-525
-10 c0 -5 -4 -10 -10 -10 -5 0 -10 5 -10 10 0 6 5 10 10 10 6 0 10 -4 10 -10z
m-33 -26 c-9 -9 -28 6 -21 18 4 6 10 6 17 -1 6 -6 8 -13 4 -17z m483 -44 c0
-5 -2 -10 -4 -10 -3 0 -8 5 -11 10 -3 6 -1 10 4 10 6 0 11 -4 11 -10z m-1826
-524 c-10 -8 -21 -12 -24 -10 -5 6 21 24 34 24 6 0 1 -6 -10 -14z m98 -438
c-9 -9 -15 -9 -24 0 -9 9 -7 12 12 12 19 0 21 -3 12 -12z m2350 -163 c0 -5 -5
-11 -11 -13 -6 -2 -11 4 -11 13 0 9 5 15 11 13 6 -2 11 -8 11 -13z m-2721 -92
c-8 -15 -10 -15 -11 -2 0 17 10 32 18 25 2 -3 -1 -13 -7 -23z m-32 -9 c4 3 8
-1 8 -8 0 -8 -6 -13 -13 -12 -20 3 -27 13 -18 27 6 10 9 10 12 1 2 -7 7 -10
11 -8z m-3594 -16 c4 4 0 -5 -10 -20 -10 -17 -13 -28 -6 -28 16 0 63 -80 57
-97 -4 -9 1 -17 13 -20 11 -3 17 -11 15 -18 -5 -13 40 -30 54 -21 4 2 8 -4 8
-14 0 -14 -7 -19 -22 -18 -13 1 -21 6 -18 10 2 4 -5 6 -16 5 -11 -1 -20 -6
-20 -12 0 -5 -8 -1 -17 10 -14 18 -15 18 -9 2 6 -18 11 -39 21 -94 l6 -28 -21
25 c-11 14 -20 30 -20 37 0 6 -4 14 -8 17 -4 2 -6 -12 -4 -32 6 -47 -7 -36
-19 17 -28 126 -31 303 -4 281 6 -5 15 -6 20 -2z m-63 -33 c3 -13 1 -22 -3
-19 -9 5 -13 44 -5 44 2 0 6 -11 8 -25z m135 -1 c16 -14 35 -23 45 -21 10 3
18 0 18 -6 0 -8 4 -7 12 1 8 8 15 9 25 0 11 -9 9 -13 -11 -24 -14 -7 -35 -10
-48 -7 l-23 6 25 -25 c14 -13 32 -23 41 -22 9 1 29 -4 44 -12 15 -8 31 -11 36
-8 5 3 9 -3 9 -12 0 -13 3 -15 11 -7 9 9 21 7 47 -7 19 -11 38 -23 41 -28 3
-5 17 -12 31 -16 l25 -7 -25 15 c-30 18 -24 20 18 5 17 -6 30 -16 29 -22 -2
-11 116 -18 132 -7 5 3 16 20 25 38 20 39 40 34 25 -5 -11 -30 -61 -79 -81
-81 -46 -3 -55 -7 -51 -19 4 -9 0 -11 -13 -6 -10 4 -15 2 -11 -3 3 -5 -10 -14
-29 -20 -19 -6 -37 -7 -40 -2 -3 4 -10 6 -15 2 -5 -3 -8 -1 -7 4 2 5 -7 18
-20 28 l-23 19 31 0 c20 0 32 -6 36 -17 6 -20 19 -23 29 -8 3 6 -1 10 -9 10
-9 0 -16 5 -16 11 0 7 9 9 21 6 17 -4 18 -3 8 9 -7 9 -16 11 -23 5 -13 -11
-50 12 -38 24 4 4 -5 5 -20 1 -21 -5 -33 0 -55 23 -29 29 -68 47 -90 43 -7 -2
-13 1 -13 7 0 5 -9 7 -19 4 -13 -3 -32 8 -59 36 -22 23 -44 41 -49 41 -9 0
-53 53 -53 64 0 4 21 11 42 15 4 0 19 -11 35 -25z m143 -9 c-7 -9 -15 -13 -19
-10 -3 3 1 10 9 15 21 14 24 12 10 -5z m-306 -55 c5 -17 4 -20 -2 -10 -5 8
-13 26 -16 40 -5 17 -4 20 2 10 5 -8 13 -26 16 -40z m750 18 c-16 -18 -30 -35
-31 -37 -2 -2 -3 0 -3 5 0 6 9 20 19 31 11 12 17 24 14 27 -4 3 2 6 12 6 16 0
14 -5 -11 -32z m1351 -68 c3 -5 1 -10 -4 -10 -6 0 -11 5 -11 10 0 6 2 10 4 10
3 0 8 -4 11 -10z m-1356 -43 c12 -15 12 -17 -3 -11 -9 3 -16 2 -16 -4 0 -6 6
-12 12 -14 7 -3 3 -7 -9 -10 -19 -5 -20 -3 -12 26 5 17 9 33 9 35 0 2 1 2 3 0
1 -2 9 -12 16 -22z m-419 -37 c19 -11 28 -19 19 -20 -8 0 -24 7 -35 15 -22 17
-38 20 -29 5 3 -5 -1 -10 -11 -10 -13 0 -14 3 -4 15 15 19 17 18 60 -5z m510
10 c0 -5 -2 -10 -4 -10 -3 0 -8 5 -11 10 -3 6 -1 10 4 10 6 0 11 -4 11 -10z
m1875 -20 c3 -5 1 -10 -4 -10 -6 0 -11 5 -11 10 0 6 2 10 4 10 3 0 8 -4 11
-10z m-2400 -20 c3 -6 -1 -7 -9 -4 -18 7 -21 14 -7 14 6 0 13 -4 16 -10z m415
2 c0 -9 -44 -32 -61 -32 -13 0 11 25 31 33 22 8 30 8 30 -1z m-530 -23 c0 -6
-4 -7 -10 -4 -5 3 -10 11 -10 16 0 6 5 7 10 4 6 -3 10 -11 10 -16z m144 -20
c-3 -6 3 -24 15 -40 12 -16 17 -29 12 -29 -14 0 -43 50 -37 66 3 8 8 14 11 14
4 0 3 -5 -1 -11z m41 1 c3 -5 1 -10 -4 -10 -6 0 -11 5 -11 10 0 6 2 10 4 10 3
0 8 -4 11 -10z m420 0 c3 -5 1 -10 -4 -10 -6 0 -11 5 -11 10 0 6 2 10 4 10 3
0 8 -4 11 -10z m-109 -11 c5 -8 -1 -10 -19 -7 -20 4 -25 1 -24 -14 1 -13 7
-18 19 -15 26 7 22 -12 -4 -23 -13 -5 -36 -20 -51 -32 -19 -16 -30 -19 -35
-11 -4 6 -18 14 -32 18 -14 3 -34 13 -45 21 -16 12 -17 16 -6 23 9 6 21 2 35
-13 27 -29 62 -38 77 -20 12 14 7 18 -22 15 -9 -1 -22 6 -29 15 -12 14 -11 18
5 27 40 24 120 33 131 16z m-272 -15 c5 -14 4 -15 -9 -4 -17 14 -19 20 -6 20
5 0 12 -7 15 -16z m831 6 c3 -5 1 -10 -4 -10 -6 0 -11 5 -11 10 0 6 2 10 4 10
3 0 8 -4 11 -10z m-525 -4 c0 -2 -7 -7 -16 -10 -8 -3 -12 -2 -9 4 6 10 25 14
25 6z m755 -6 c3 -5 -1 -10 -10 -10 -9 0 -13 5 -10 10 3 6 8 10 10 10 2 0 7
-4 10 -10z m-97 -12 c19 -19 14 -31 -10 -24 -17 4 -28 -1 -40 -17 -10 -12 -18
-16 -18 -10 0 14 39 63 50 63 3 0 11 -5 18 -12z m-1277 -45 c12 -26 25 -41 27
-34 8 25 38 -19 63 -93 21 -65 28 -76 57 -87 37 -15 63 -39 42 -39 -9 0 -7 -7
5 -20 10 -11 23 -20 29 -20 7 0 7 3 -1 8 -6 4 -11 14 -11 22 2 37 -3 52 -16
47 -9 -4 -16 3 -20 16 -7 28 -2 31 26 16 39 -22 49 -19 30 7 -9 13 -21 24 -27
24 -12 1 -45 64 -45 86 0 21 18 8 41 -30 11 -17 19 -24 19 -15 0 21 -39 98
-40 79 -1 -8 -6 -4 -11 9 -6 16 -6 28 1 35 7 7 10 6 10 -3 0 -7 8 -11 18 -10
9 2 28 -3 41 -10 14 -8 21 -9 17 -2 -4 6 -3 11 3 11 15 0 25 -21 12 -29 -6 -4
1 -14 19 -24 16 -10 35 -28 42 -40 11 -21 10 -21 -8 -7 -10 8 -22 20 -26 25
-5 6 -8 4 -8 -4 0 -8 7 -22 15 -31 14 -16 14 -18 0 -24 -9 -3 -14 -2 -11 3 3
4 -3 16 -14 26 -11 10 -20 13 -20 8 0 -6 7 -14 16 -17 8 -3 13 -10 10 -14 -3
-5 8 -23 24 -40 20 -22 34 -30 46 -25 12 5 15 3 9 -6 -4 -8 -2 -17 6 -22 11
-7 10 -9 -3 -9 -33 0 -14 -32 37 -64 17 -10 24 -13 18 -5 -18 18 -16 39 3 39
9 0 12 -5 8 -11 -4 -7 -1 -10 7 -7 8 3 13 13 13 22 -2 12 3 15 19 10 15 -5 19
-3 14 8 -4 11 1 14 21 10 28 -5 52 -19 52 -32 0 -4 -10 -12 -22 -18 -13 -6
-18 -11 -11 -11 6 -1 24 -6 40 -13 15 -6 31 -12 35 -12 3 -1 10 -5 15 -10 5
-5 2 -6 -6 -1 -9 5 -12 4 -8 -2 4 -6 33 -11 64 -11 53 -1 56 0 39 13 -11 8
-17 17 -15 19 10 10 60 -40 62 -62 1 -13 6 -21 13 -18 7 3 14 -4 17 -15 3 -12
0 -19 -10 -19 -9 0 -2 -10 17 -26 32 -27 35 -39 6 -28 -9 3 -16 12 -16 19 0
15 -66 49 -80 40 -6 -3 -10 -1 -10 4 0 6 -4 11 -10 11 -18 0 -10 -18 10 -25
11 -4 17 -11 14 -17 -4 -6 -2 -8 3 -5 6 4 19 -3 29 -14 11 -12 52 -37 92 -55
39 -19 72 -38 72 -43 0 -10 -66 -6 -83 6 -7 4 -5 0 6 -9 11 -11 15 -23 11 -30
-6 -10 -5 -10 8 0 9 7 29 11 45 8 15 -2 37 -5 48 -6 l20 -1 -20 -8 c-17 -7
-14 -10 20 -20 50 -14 64 -14 45 0 -10 7 -11 9 -2 7 26 -7 17 -22 -18 -29 -22
-5 -40 -3 -49 4 -12 10 -13 9 -6 -2 6 -11 4 -13 -11 -7 -10 5 -32 12 -47 17
-24 7 -27 6 -17 -6 6 -8 17 -12 24 -9 7 3 19 -3 27 -12 13 -15 11 -16 -11 -10
-19 6 -21 5 -10 -3 8 -6 22 -8 31 -5 9 2 30 -6 46 -20 20 -17 33 -22 44 -16
19 11 61 1 53 -11 -3 -5 -10 -7 -15 -4 -5 4 -9 1 -9 -4 0 -6 9 -11 20 -11 11
0 20 5 20 10 0 17 26 11 45 -10 15 -16 26 -19 53 -14 24 5 33 3 28 -4 -12 -19
14 -24 40 -7 14 9 28 14 31 11 3 -3 -1 -8 -10 -12 -12 -4 -14 -11 -6 -31 8
-22 7 -24 -7 -19 -15 6 -15 4 -3 -10 11 -13 11 -17 -4 -25 -10 -6 -14 -16 -10
-26 4 -11 3 -14 -5 -9 -7 4 -12 1 -12 -8 0 -19 -11 -21 -28 -4 -9 9 -12 8 -12
-5 0 -9 6 -17 13 -17 7 0 17 -8 24 -19 11 -17 56 -34 98 -36 24 -1 33 -33 10
-41 -24 -10 -219 43 -338 91 -274 111 -524 289 -710 504 -113 129 -225 299
-209 316 4 5 2 5 -4 2 -10 -6 -36 39 -70 121 -21 49 -9 38 17 -15z m1393 33
c-3 -9 -12 -12 -22 -9 -15 6 -9 11 25 22 1 1 0 -5 -3 -13z m-536 -7 c-2 -6 -8
-10 -13 -10 -5 0 -11 4 -13 10 -2 6 4 11 13 11 9 0 15 -5 13 -11z m140 -1 c-2
-6 -10 -14 -16 -16 -7 -2 -10 2 -6 12 7 18 28 22 22 4z m-54 -13 c3 -9 0 -15
-9 -15 -9 0 -12 6 -9 15 4 8 7 15 9 15 2 0 5 -7 9 -15z m956 -5 c0 -5 -4 -10
-10 -10 -5 0 -10 5 -10 10 0 6 5 10 10 10 6 0 10 -4 10 -10z m-842 -13 c-3 -6
-15 -13 -27 -15 -15 -2 -21 -9 -17 -18 7 -18 -1 -18 -20 0 -12 12 -12 17 -1
28 18 18 70 22 65 5z m-176 -42 c-12 -22 -27 -2 -18 22 5 12 10 13 17 6 7 -7
8 -17 1 -28z m-742 -1 c0 -8 -4 -12 -10 -9 -5 3 -10 10 -10 16 0 5 5 9 10 9 6
0 10 -7 10 -16z m715 -24 c0 -7 -6 -15 -12 -17 -8 -3 -13 4 -13 17 0 13 5 20
13 18 6 -3 12 -11 12 -18z m-50 -1 c11 -17 -1 -21 -15 -4 -8 9 -8 15 -2 15 6
0 14 -5 17 -11z m328 -15 c-7 -20 -19 -17 -19 5 0 11 6 17 13 14 6 -3 9 -11 6
-19z m57 22 c0 -2 -7 -9 -15 -16 -13 -11 -14 -10 -9 4 5 14 24 23 24 12z
m-823 -58 c2 -17 0 -19 -7 -8 -5 8 -6 18 -4 22 8 12 10 10 11 -14z m434 -15
c-6 -10 -11 -12 -11 -5 0 6 -8 12 -17 12 -14 -1 -12 -6 10 -24 33 -26 22 -36
-30 -29 -41 6 -64 30 -37 39 11 3 28 10 39 14 52 22 62 20 46 -7z m73 -7 c-3
-19 2 -28 23 -38 30 -15 42 -38 20 -38 -10 0 -13 -7 -10 -20 4 -16 0 -20 -20
-20 -16 0 -31 8 -37 20 -6 11 -16 17 -25 14 -25 -10 -17 22 10 40 14 9 23 21
19 27 -7 13 2 39 15 39 5 0 8 -11 5 -24z m419 7 c3 8 11 6 26 -7 21 -19 30
-43 11 -31 -13 8 -60 -21 -60 -36 0 -6 6 -7 13 -3 6 4 9 4 5 -1 -5 -5 2 -13
14 -19 24 -12 38 -71 15 -63 -7 2 -11 14 -9 25 2 16 -4 25 -23 32 -14 5 -30 9
-35 7 -5 -1 -20 11 -32 26 -26 32 -55 29 -60 -6 -4 -30 -22 -31 -38 -2 -7 14
-19 25 -27 25 -7 0 -13 5 -13 11 0 6 9 8 23 3 24 -8 25 -8 74 2 18 3 46 1 62
-4 19 -7 33 -7 36 -1 4 5 -1 9 -9 9 -8 0 -20 9 -26 19 -9 18 -8 19 19 11 21
-6 31 -5 34 3z m-943 -38 c0 -5 -5 -3 -10 5 -5 8 -10 20 -10 25 0 6 5 3 10 -5
5 -8 10 -19 10 -25z m-129 -2 c13 -16 12 -17 -3 -4 -10 7 -18 15 -18 17 0 8 8
3 21 -13z m775 -13 c22 0 17 -16 -6 -17 -15 -1 -20 4 -19 20 0 12 3 16 6 10 2
-7 11 -13 19 -13z m-580 -2 c4 -7 3 -8 -4 -4 -7 4 -12 2 -12 -5 0 -7 -3 -10
-6 -6 -6 5 3 27 11 27 2 0 7 -5 11 -12z m284 -3 c-7 -9 -8 -15 -2 -15 5 0 8
-9 5 -20 -7 -28 12 -25 35 5 11 14 23 25 27 25 4 0 2 -7 -5 -15 -6 -8 -9 -23
-5 -35 5 -15 3 -21 -7 -19 -26 3 -39 -1 -33 -11 3 -5 2 -10 -3 -10 -5 0 -12
14 -16 31 -3 17 -9 28 -13 26 -5 -3 -8 8 -9 24 -1 23 3 29 19 29 16 0 17 -3 7
-15z m-294 -61 c-5 -14 -9 -14 -22 -3 -14 12 -14 14 3 20 23 8 27 4 19 -17z
m174 16 c0 -5 -2 -10 -4 -10 -3 0 -8 5 -11 10 -3 6 -1 10 4 10 6 0 11 -4 11
-10z m800 -10 c0 -5 -5 -10 -11 -10 -5 0 -7 5 -4 10 3 6 8 10 11 10 2 0 4 -4
4 -10z m2090 0 c0 -5 -5 -10 -11 -10 -5 0 -7 5 -4 10 3 6 8 10 11 10 2 0 4 -4
4 -10z m-2618 -42 c-9 -9 -15 -9 -24 0 -9 9 -7 12 12 12 19 0 21 -3 12 -12z
m263 -46 c5 -12 22 -27 37 -33 16 -6 31 -16 35 -22 3 -6 1 -7 -5 -3 -7 4 -12
2 -12 -4 0 -7 -5 -10 -11 -8 -6 2 -10 8 -10 13 0 6 -17 19 -37 29 -28 15 -33
21 -19 24 18 4 18 4 0 18 -13 11 -14 14 -3 11 8 -2 19 -13 25 -25z m-255 8 c0
-5 -8 -10 -17 -10 -15 0 -16 2 -3 10 19 12 20 12 20 0z m118 -40 c-22 -30 -38
-39 -38 -20 0 19 4 25 16 22 6 -1 17 5 24 13 22 27 21 16 -2 -15z m-170 0 c22
-11 46 -20 52 -20 5 0 10 -7 10 -15 0 -8 -4 -15 -10 -15 -5 0 -10 3 -10 8 0 4
-20 16 -45 27 -25 11 -45 23 -45 28 0 10 1 10 48 -13z m3242 -20 c0 -5 -4 -10
-10 -10 -5 0 -10 5 -10 10 0 6 5 10 10 10 6 0 10 -4 10 -10z m-3131 -15 c13 0
26 -6 29 -12 2 -8 -6 -13 -22 -13 -14 0 -29 -1 -33 -2 -3 -2 -8 8 -10 22 -1
14 0 21 4 15 5 -5 19 -10 32 -10z m2591 -15 c0 -5 -5 -10 -11 -10 -5 0 -7 5
-4 10 3 6 8 10 11 10 2 0 4 -4 4 -10z m-2559 -50 c5 0 9 -7 9 -15 0 -8 6 -15
14 -15 7 0 20 -9 27 -21 8 -11 21 -21 29 -23 8 -1 29 -10 45 -19 20 -11 23
-15 10 -13 -11 2 -27 6 -36 10 -9 4 -27 8 -41 10 -36 4 -51 15 -39 30 8 9 1
17 -24 29 -34 16 -51 45 -19 33 9 -3 20 -6 25 -6z m279 0 c0 -5 -2 -10 -4 -10
-3 0 -8 5 -11 10 -3 6 -1 10 4 10 6 0 11 -4 11 -10z m1245 -10 c3 -5 1 -10 -4
-10 -6 0 -11 5 -11 10 0 6 2 10 4 10 3 0 8 -4 11 -10z m-1330 -10 c3 -5 -1
-10 -10 -10 -9 0 -13 5 -10 10 3 6 8 10 10 10 2 0 7 -4 10 -10z m-1780 -50 c3
-5 1 -10 -4 -10 -6 0 -11 5 -11 10 0 6 2 10 4 10 3 0 8 -4 11 -10z m1860 -30
c3 -5 1 -10 -4 -10 -6 0 -11 5 -11 10 0 6 2 10 4 10 3 0 8 -4 11 -10z m-199
-15 c17 -17 7 -19 -35 -8 -23 6 -23 7 -5 14 10 4 20 8 22 8 2 1 10 -6 18 -14z
m369 -25 c-3 -5 -14 -10 -23 -10 -15 0 -15 2 -2 10 20 13 33 13 25 0z m-223
-17 c11 -9 35 -17 53 -17 19 0 35 -4 35 -9 0 -4 4 -6 9 -3 12 8 20 -40 9 -56
-7 -10 -11 -10 -15 -1 -4 12 -43 33 -85 47 -10 3 -18 14 -18 25 0 11 -6 22
-12 24 -7 3 -9 6 -4 6 5 1 18 -7 28 -16z m-102 -17 c0 -9 -30 -14 -35 -6 -4 6
3 10 14 10 12 0 21 -2 21 -4z m-75 -16 c19 -8 19 -9 -2 -9 -12 -1 -25 4 -28 9
-7 12 2 12 30 0z m1135 -10 c0 -5 -4 -10 -10 -10 -5 0 -10 5 -10 10 0 6 5 10
10 10 6 0 10 -4 10 -10z m-1145 -13 c11 -8 14 -16 8 -20 -6 -4 -18 2 -28 13
-21 23 -8 27 20 7z m257 -49 c-9 -9 -12 -9 -12 1 0 7 -5 9 -12 5 -9 -5 -8 -2
1 10 10 12 17 14 25 6 7 -7 6 -14 -2 -22z m628 -18 c0 -5 -5 -10 -11 -10 -5 0
-7 5 -4 10 3 6 8 10 11 10 2 0 4 -4 4 -10z m-145 -60 c3 -5 1 -10 -4 -10 -6 0
-11 5 -11 10 0 6 2 10 4 10 3 0 8 -4 11 -10z m-1145 -30 c0 -5 -4 -10 -10 -10
-5 0 -10 5 -10 10 0 6 5 10 10 10 6 0 10 -4 10 -10z m720 -30 c0 -5 -5 -10
-11 -10 -5 0 -7 5 -4 10 3 6 8 10 11 10 2 0 4 -4 4 -10z m-1952 -68 c9 -27 8
-28 -24 -29 -19 0 -31 3 -28 8 3 5 15 9 27 9 16 0 19 3 8 9 -7 5 -10 14 -7 20
10 16 13 14 24 -17z m22 -71 c0 -5 -9 -11 -19 -14 -14 -3 -18 -1 -14 9 6 15
33 19 33 5z m2098 -12 c-19 -13 -28 -11 -28 5 0 9 7 12 21 9 16 -4 17 -8 7
-14z m-111 -5 c-3 -3 -12 -4 -19 -1 -8 3 -5 6 6 6 11 1 17 -2 13 -5z m-622
-14 c3 -5 -1 -10 -10 -10 -9 0 -13 5 -10 10 3 6 8 10 10 10 2 0 7 -4 10 -10z
m-1371 -126 c5 -12 2 -15 -10 -10 -8 3 -18 6 -20 6 -3 0 -2 5 1 10 9 15 22 12
29 -6z m123 -10 c-9 -9 -28 6 -21 18 4 6 10 6 17 -1 6 -6 8 -13 4 -17z m173
-68 c0 -2 -10 -2 -22 -1 -12 1 -22 9 -24 18 -2 15 0 15 22 0 13 -8 24 -16 24
-17z m730 14 c0 -5 -4 -10 -10 -10 -5 0 -10 5 -10 10 0 6 5 10 10 10 6 0 10
-4 10 -10z m-843 -8 c7 -5 9 -13 3 -22 -7 -11 -11 -11 -24 -1 -24 20 -6 40 21
23z m92 -14 c8 2 11 0 7 -6 -4 -6 2 -8 15 -5 18 5 19 2 13 -23 -9 -39 -32 -64
-59 -64 -22 0 -69 -29 -47 -30 14 0 17 -30 3 -30 -5 0 -12 -7 -15 -16 -4 -11
-2 -15 8 -11 20 8 27 -40 8 -55 -12 -10 -14 -10 -9 -1 11 19 -22 65 -42 58
-11 -3 -22 5 -34 24 -16 27 -16 32 0 74 13 35 23 47 48 54 30 10 31 10 27 -24
-3 -20 0 -33 7 -33 6 0 11 10 11 23 2 79 1 76 24 68 11 -5 27 -6 35 -3z m3711
8 c0 -3 -4 -8 -10 -11 -5 -3 -10 -1 -10 4 0 6 5 11 10 11 6 0 10 -2 10 -4z
m-1155 -26 c3 -5 1 -10 -4 -10 -6 0 -11 5 -11 10 0 6 2 10 4 10 3 0 8 -4 11
-10z m-2175 -62 c0 -6 7 -19 16 -29 21 -24 11 -53 -16 -46 -11 3 -20 1 -20 -4
0 -13 -51 0 -71 18 -9 8 -24 11 -34 7 -15 -6 -16 -4 -7 11 8 15 5 22 -12 36
-23 20 -24 20 53 23 22 0 43 4 46 8 10 10 45 -10 45 -24z m-280 -60 c0 -5 -7
-8 -15 -8 -8 0 -15 -4 -15 -9 0 -5 -3 -16 -6 -25 -4 -11 -1 -16 10 -16 9 0 16
-5 16 -10 0 -6 9 -21 20 -32 15 -16 23 -19 31 -11 9 9 16 6 29 -10 14 -17 16
-26 6 -46 -8 -19 -8 -25 2 -29 19 -6 14 -22 -8 -22 -14 0 -20 7 -20 23 0 26
-35 61 -71 72 -23 8 -23 7 4 -29 32 -41 24 -48 -12 -11 -13 14 -34 25 -47 25
-14 0 -24 6 -24 14 0 8 -5 16 -11 18 -9 3 -8 14 1 43 15 45 27 59 58 69 12 4
20 12 16 17 -3 6 3 5 15 -3 12 -7 21 -16 21 -20z m4180 12 c0 -5 -5 -10 -11
-10 -5 0 -7 5 -4 10 3 6 8 10 11 10 2 0 4 -4 4 -10z m-4450 -30 c0 -5 -2 -10
-4 -10 -3 0 -8 5 -11 10 -3 6 -1 10 4 10 6 0 11 -4 11 -10z m151 -137 c12 -15
12 -16 -1 -8 -8 5 -23 8 -34 6 -11 -1 -16 2 -12 8 10 16 32 13 47 -6z m319 7
c0 -5 -4 -10 -10 -10 -5 0 -10 5 -10 10 0 6 5 10 10 10 6 0 10 -4 10 -10z
m-90 -20 c0 -5 -5 -10 -11 -10 -5 0 -7 5 -4 10 3 6 8 10 11 10 2 0 4 -4 4 -10z
m94 -6 c9 -3 14 -10 11 -15 -7 -10 -35 0 -35 12 0 11 3 11 24 3z m-464 -59 c0
-8 5 -15 10 -15 6 0 10 -4 10 -10 0 -15 -36 -12 -49 3 -8 10 -7 17 1 25 16 16
28 15 28 -3z m335 -25 c3 -5 -3 -10 -15 -10 -12 0 -18 5 -15 10 3 6 10 10 15
10 5 0 12 -4 15 -10z m926 -6 c10 -12 10 -20 1 -35 -7 -10 -12 -27 -12 -38 0
-25 -18 -37 -57 -39 -26 -2 -33 2 -33 17 0 10 -7 22 -16 25 -10 4 -14 15 -12
33 3 23 9 29 41 34 20 3 40 9 44 12 11 12 30 8 44 -9z m1264 -4 c3 -5 1 -10
-4 -10 -6 0 -11 5 -11 10 0 6 2 10 4 10 3 0 8 -4 11 -10z m-1765 -280 c0 -5
-5 -10 -11 -10 -5 0 -7 5 -4 10 3 6 8 10 11 10 2 0 4 -4 4 -10z m377 -380 c5
-20 37 -36 61 -31 15 3 52 -27 52 -41 0 -8 -118 -3 -126 5 -2 2 -6 22 -10 45
-5 30 -3 42 6 42 6 0 14 -9 17 -20z"/>
<path d="M4260 5010 c0 -13 28 -25 38 -16 3 4 0 11 -8 16 -20 13 -30 12 -30 0z"/>
<path d="M4587 4641 c3 -12 11 -17 19 -14 11 4 11 7 -1 19 -19 19 -24 18 -18
-5z"/>
<path d="M4546 4483 c5 -5 12 -12 16 -18 4 -6 8 -2 8 8 0 9 -7 17 -17 17 -9 0
-12 -3 -7 -7z"/>
<path d="M6065 5629 c-4 -6 -5 -12 -2 -15 2 -3 7 2 10 11 7 17 1 20 -8 4z"/>
<path d="M6041 5565 c-1 -11 8 -26 19 -33 12 -7 20 -8 20 -2 0 5 -4 10 -8 10
-5 0 -14 10 -20 23 -10 21 -11 21 -11 2z"/>
<path d="M926 3575 c-3 -9 0 -15 9 -15 9 0 12 6 9 15 -4 8 -7 15 -9 15 -2 0
-5 -7 -9 -15z"/>
<path d="M900 3498 c0 -9 5 -20 10 -23 13 -8 13 5 0 25 -8 13 -10 13 -10 -2z"/>
<path d="M950 3441 c0 -5 5 -13 10 -16 6 -3 10 -2 10 4 0 5 -4 13 -10 16 -5 3
-10 2 -10 -4z"/>
<path d="M977 3348 c20 -22 18 -22 20 1 1 14 -4 19 -17 18 -18 -1 -18 -3 -3
-19z"/>
<path d="M961 3333 c7 -12 15 -20 18 -17 3 2 -3 12 -13 22 -17 16 -18 16 -5
-5z"/>
<path d="M1245 3340 c-3 -5 1 -10 10 -10 9 0 13 5 10 10 -3 6 -8 10 -10 10 -2
0 -7 -4 -10 -10z"/>
<path d="M1170 3300 c-9 -6 -10 -10 -3 -10 6 0 15 5 18 10 8 12 4 12 -15 0z"/>
<path d="M1230 3280 c6 -11 15 -18 21 -15 13 9 11 13 -12 25 -19 11 -20 10 -9
-10z"/>
<path d="M1195 3281 c-3 -5 -2 -12 3 -15 5 -3 9 1 9 9 0 17 -3 19 -12 6z"/>
<path d="M1274 3239 c-3 -5 9 -9 25 -9 17 0 31 2 31 4 0 8 -51 13 -56 5z"/>
<path d="M1090 3236 c0 -2 8 -10 18 -17 15 -13 16 -12 3 4 -13 16 -21 21 -21
13z"/>
<path d="M1420 3220 c-7 -14 -7 -20 0 -20 5 0 10 6 10 14 0 8 6 17 13 19 9 4
9 6 0 6 -7 1 -17 -8 -23 -19z"/>
<path d="M1280 3210 c-9 -6 -10 -10 -3 -10 6 0 15 5 18 10 8 12 4 12 -15 0z"/>
<path d="M1440 3197 c0 -10 8 -17 18 -17 9 0 13 4 7 8 -5 4 -13 11 -17 16 -5
5 -8 2 -8 -7z"/>
<path d="M1324 3185 c15 -8 36 -15 45 -15 9 1 1 7 -18 15 -44 19 -64 19 -27 0z"/>
<path d="M1325 3160 c3 -5 16 -10 28 -9 21 0 21 1 2 9 -28 12 -37 12 -30 0z"/>
<path d="M1390 3130 c-9 -6 -10 -10 -3 -10 6 0 15 5 18 10 8 12 4 12 -15 0z"/>
<path d="M1145 3110 c3 -5 10 -10 16 -10 5 0 9 5 9 10 0 6 -7 10 -16 10 -8 0
-12 -4 -9 -10z"/>
<path d="M1300 2996 c0 -2 8 -10 18 -17 15 -13 16 -12 3 4 -13 16 -21 21 -21
13z"/>
<path d="M1325 2930 c3 -5 16 -10 28 -9 21 0 21 1 2 9 -28 12 -37 12 -30 0z"/>
<path d="M1410 2876 c0 -2 9 -6 20 -9 11 -3 18 -1 14 4 -5 9 -34 13 -34 5z"/>
<path d="M1465 2850 c3 -5 8 -10 11 -10 2 0 4 5 4 10 0 6 -5 10 -11 10 -5 0
-7 -4 -4 -10z"/>
<path d="M1740 2729 c0 -5 5 -7 10 -4 6 3 10 8 10 11 0 2 -4 4 -10 4 -5 0 -10
-5 -10 -11z"/>
<path d="M1804 2718 c10 -6 22 -6 26 -2 5 5 -3 10 -18 11 -22 1 -24 0 -8 -9z"/>
<path d="M0 2093 c0 -54 8 -64 30 -38 10 12 9 16 -3 21 -9 3 -13 12 -11 19 3
8 1 22 -5 32 -8 14 -10 7 -11 -34z"/>
<path d="M0 1988 c0 -16 3 -16 20 -6 11 7 20 15 20 18 0 3 -9 6 -20 6 -13 0
-20 -7 -20 -18z"/>
<path d="M530 1852 c0 -7 -7 -12 -15 -12 -17 0 -20 -16 -4 -26 6 -3 18 1 27
10 13 12 14 19 4 28 -9 9 -12 9 -12 0z"/>
<path d="M370 1800 c0 -5 5 -10 10 -10 6 0 10 5 10 10 0 6 -4 10 -10 10 -5 0
-10 -4 -10 -10z"/>
<path d="M525 1793 c-10 -12 -23 -19 -28 -16 -6 4 -7 -5 -3 -22 5 -19 3 -31
-6 -37 -8 -6 -5 -7 11 -3 21 6 23 4 18 -14 -6 -26 7 -27 34 -2 13 12 18 24 13
32 -4 8 -10 29 -14 49 l-6 35 -19 -22z"/>
<path d="M187 1793 c-12 -11 -8 -23 8 -23 8 0 15 7 15 15 0 16 -12 20 -23 8z"/>
<path d="M490 1570 c0 -11 -4 -20 -10 -20 -15 0 0 -29 18 -34 10 -2 36 -7 59
-11 l43 -7 -11 31 c-9 26 -15 30 -34 25 -17 -4 -26 0 -35 15 -14 27 -30 27
-30 1z"/>
</g>
</svg>
